<svg width="24" height="24" viewBox="0 0 24 24" fill="none" xmlns="http://www.w3.org/2000/svg">
<g id="CheckFat" opacity="0.45" clip-path="url(#clip0_1_2925)">
<path id="Vector" d="M22.8119 8.52278L10.7735 20.5603C10.6342 20.6996 10.4688 20.8101 10.2868 20.8855C10.1048 20.9609 9.90972 20.9997 9.7127 20.9997C9.51569 20.9997 9.32061 20.9609 9.1386 20.8855C8.95659 20.8101 8.79121 20.6996 8.65192 20.5603L1.93755 13.8103C1.65674 13.529 1.49902 13.1479 1.49902 12.7504C1.49902 12.353 1.65674 11.9718 1.93755 11.6906L4.18755 9.44059C4.46789 9.16018 4.84785 9.00217 5.24436 9.00112C5.64086 9.00006 6.02166 9.15605 6.30348 9.43496L9.73849 12.7415L9.7488 12.7518L18.4422 4.1859C18.7234 3.90595 19.1039 3.74878 19.5007 3.74878C19.8974 3.74878 20.278 3.90595 20.5591 4.1859L22.8091 6.39465C22.9496 6.53388 23.0612 6.69951 23.1374 6.88203C23.2136 7.06455 23.253 7.26033 23.2533 7.45813C23.2535 7.65592 23.2147 7.85181 23.1389 8.03453C23.0632 8.21725 22.952 8.38318 22.8119 8.52278Z" fill="#3B28CC"/>
</g>
<defs>
<clipPath id="clip0_1_2925">
<rect width="24" height="24" fill="white"/>
</clipPath>
</defs>
</svg>
